<?xml version="1.0" encoding="UTF-8"?>
<!-- Created with Inkscape (http://www.inkscape.org/) -->
<svg width="32" height="32" version="1.1" viewBox="0 0 8.4667 8.4667" xmlns="http://www.w3.org/2000/svg" xmlns:cc="http://creativecommons.org/ns#" xmlns:dc="http://purl.org/dc/elements/1.1/" xmlns:rdf="http://www.w3.org/1999/02/22-rdf-syntax-ns#">
 <metadata>
  <rdf:RDF>
   <cc:Work rdf:about="">
    <dc:format>image/svg+xml</dc:format>
    <dc:type rdf:resource="http://purl.org/dc/dcmitype/StillImage"/>
    <dc:title/>
   </cc:Work>
  </rdf:RDF>
 </metadata>
 <g transform="translate(0 -288.53)">
  <g transform="matrix(.35278 0 0 -.35278 -164.94 100.74)">
   <path d="m0 0v0.951c0 0.295-0.239 0.534-0.535 0.534h-18.93c-0.296 0-0.535-0.239-0.535-0.534v-2.77l9.764-4.764c0.149-0.072 0.322-0.072 0.471 0l9.765 4.751v-8.91c0-0.295-0.239-0.535-0.535-0.535h-18.93c-0.296 0-0.535 0.24-0.535 0.535v6.91" fill="none" stroke="#888" stroke-linecap="round" stroke-linejoin="round" stroke-miterlimit="10" stroke-width="1.25"/>
  </g>
  <g transform="matrix(.35278 0 0 -.35278 -186.79 118.61)">
   <path d="m0 0 0.993-0.911c0.063-0.057 0.143-0.086 0.222-0.086 0.08 0 0.159 0.029 0.222 0.086l7.42 6.804c0.53 0.468 0.926 1.014 1.18 1.624 0.25 0.604 0.377 1.222 0.377 1.836 0 0.618-0.127 1.238-0.377 1.841-0.254 0.611-0.65 1.158-1.18 1.625-0.47 0.413-0.998 0.726-1.569 0.93-1.134 0.408-2.44 0.404-3.564 0-0.569-0.203-1.098-0.516-1.577-0.936l-0.662-0.613c-0.155-0.144-0.394-0.146-0.552-5e-3l-0.69 0.617c-0.444 0.415-0.968 0.731-1.559 0.938-1.156 0.406-2.415 0.405-3.541-1e-3 -0.57-0.204-1.099-0.517-1.574-0.932-0.531-0.474-0.927-1.02-1.177-1.624-0.248-0.6-0.373-1.219-0.373-1.84 0-0.616 0.125-1.234 0.373-1.835 0.25-0.603 0.646-1.149 1.174-1.62l4.218-3.867" fill="none" stroke="#888" stroke-linecap="round" stroke-miterlimit="10" stroke-width="1.25"/>
  </g>
  <g transform="matrix(.35278 0 0 -.35278 -220.2 115.12)">
   <path d="m0 0c0.441-0.202 0.931-0.316 1.449-0.316 0.976 0 1.859 0.396 2.499 1.036 0.64 0.639 1.035 1.523 1.035 2.499s-0.395 1.86-1.035 2.499c-0.64 0.64-1.523 1.035-2.499 1.035s-1.86-0.395-2.5-1.035c-0.639-0.639-1.035-1.523-1.035-2.499 0-0.208 0.022-0.411 0.059-0.608 0.038-0.197 0.093-0.388 0.159-0.574l-3.443-1.987-3.442-1.988c-0.324 0.398-0.73 0.727-1.193 0.956s-0.983 0.358-1.536 0.358c-0.976 0-1.86-0.395-2.499-1.035-0.64-0.639-1.036-1.523-1.036-2.499s0.396-1.86 1.036-2.499c0.639-0.64 1.523-1.036 2.499-1.036 0.563 0 1.092 0.134 1.561 0.371 0.469 0.236 0.879 0.575 1.203 0.985l6.866-3.964c-0.072-0.193-0.131-0.392-0.171-0.598s-0.063-0.418-0.063-0.636c0-0.976 0.396-1.86 1.035-2.499 0.64-0.64 1.524-1.036 2.5-1.036s1.859 0.396 2.499 1.036c0.64 0.639 1.035 1.523 1.035 2.499s-0.395 1.86-1.035 2.499c-0.64 0.64-1.523 1.035-2.499 1.035-0.509 0-0.99-0.108-1.425-0.303" fill="none" stroke="#888" stroke-linecap="round" stroke-linejoin="round" stroke-miterlimit="10" stroke-width="1.25"/>
  </g>
  <g transform="matrix(.35278 0 0 -.35278 -203.05 104.06)">
   <path d="m0 0c-0.94-0.494-1.99-0.815-3.114-0.917-4.57-0.415-8.612 2.954-9.027 7.525s2.954 8.613 7.525 9.028c4.571 0.414 8.613-2.955 9.027-7.526 0.224-2.461-0.65-4.77-2.219-6.44" fill="none" stroke="#888" stroke-linecap="round" stroke-linejoin="round" stroke-miterlimit="10" stroke-width="1.25"/>
  </g>
  <g transform="matrix(.35278 0 0 -.35278 -200.29 105.56)">
   <path d="m0 0-5.772 5.777" fill="none" stroke="#888" stroke-linecap="round" stroke-linejoin="round" stroke-miterlimit="10" stroke-width="1.25"/>
  </g>
  <g transform="matrix(.35278 0 0 -.35278 -220.96 105.48)">
   <path d="m0 0c-0.286 0-0.553 0.111-0.755 0.313l-1.3 1.3c-0.22 0.219-0.22 0.574 0 0.793 0.217 0.219 0.573 0.221 0.793 1e-3l1.206-1.206v2.073c0 0.595 0.484 1.079 1.078 1.079h5.584c0.255 0 0.462 0.207 0.462 0.461v10.72c0 0.254-0.207 0.461-0.462 0.461h-16.834c-0.254 0-0.461-0.207-0.461-0.461v-10.72c0-0.254 0.207-0.461 0.461-0.461h6.574c0.283 0 0.56-0.115 0.761-0.315l0.472-0.471c0.219-0.219 0.219-0.575 0-0.794s-0.574-0.219-0.793 0l-0.471 0.47-6.543-0.012c-0.873 0-1.583 0.71-1.583 1.583v10.72c0 0.873 0.71 1.582 1.583 1.582h16.834c0.873 0 1.583-0.709 1.583-1.582v-10.72c0-0.873-0.71-1.583-1.583-1.583h-5.584l0.044-2.165c0-0.432-0.258-0.818-0.656-0.984-0.134-0.056-0.27-0.082-0.41-0.082" fill="#888"/>
  </g>
  <g transform="matrix(.35278 0 0 -.35278 -167.19 117.36)">
   <path d="m0 0 0.462 0.025c0.313-0.019 3.757-1.229 4.665-2.135 0.419-0.418 0.591-1.471-0.084-2.306-0.365-0.452-1.712-1.966-2.619-2.158-1.713-0.362-4.728 0.161-8.717 3.209-0.796 0.609-1.591 1.334-2.355 2.197-1.121 1.264-1.962 2.584-2.589 3.869-1.973 4.042-1.823 7.736-1.565 8.252 0.547 1.091 1.533 1.785 2.025 2.094 0.162 0.1 0.201 0.205 0.379 0.241 0.732 0.15 2.042-0.165 2.382-0.58 0.674-0.821 1.335-4.288 1.315-4.601-0.032-0.536-0.514-1.023-1.648-2.034-0.188-0.168-0.271-0.439-0.178-0.674 0.502-1.273 1.545-2.824 2.394-3.784 0.791-0.892 2.39-2.348 3.687-3.072 0.222-0.124 0.505-0.076 0.696 0.092 0.066 0.059 0.131 0.116 0.193 0.17 0.12 0.105 0.231 0.201 0.337 0.291" fill="none" stroke="#888" stroke-linecap="round" stroke-miterlimit="10"/>
  </g>
  <g transform="matrix(.35278 0 0 -.35278 -238.83 104.13)">
   <path d="m0 0-0.745 0.542-5.605-4.072c-0.167-0.122-0.394-0.122-0.561 0-0.168 0.121-0.238 0.337-0.174 0.534l2.141 6.588-5.604 4.071c-0.168 0.122-0.238 0.338-0.174 0.535s0.247 0.33 0.454 0.33h6.927l2.141 6.589c0.064 0.196 0.248 0.33 0.455 0.33s0.39-0.134 0.454-0.33l2.141-6.589h6.927c0.207 0 0.39-0.133 0.454-0.33s-6e-3 -0.413-0.174-0.535l-5.604-4.071 2.141-6.588c0.064-0.197-6e-3 -0.413-0.174-0.534-0.083-0.061-0.182-0.091-0.28-0.091-0.099 0-0.197 0.03-0.281 0.091l-3.207 2.33" fill="none" stroke="#888" stroke-linecap="round" stroke-linejoin="round" stroke-miterlimit="10" stroke-width="1.25"/>
  </g>
  <g transform="matrix(.35278 0 0 -.35278 -186.14 103.37)">
   <path d="m0 0 0.99 0.99 4.051-7.033c0.115-0.191 0.312-0.32 0.535-0.346 0.224-0.03 0.447 0.048 0.606 0.207l0.105 0.105c0.167 0.167 0.241 0.402 0.203 0.634l-1.582 10.352 2.82 2.819c0.773 0.773 2.318 3.864 1.545 4.637s-3.864-0.773-4.636-1.546l-2.82-2.819-10.352 1.581c-0.231 0.039-0.466-0.036-0.634-0.203l-0.104-0.104c-0.159-0.159-0.238-0.383-0.21-0.604 0.027-0.224 0.155-0.421 0.348-0.538l7.034-4.05-0.99-0.991-3.323-3.322-3.159 0.503c-0.24 0.046-0.487-0.028-0.658-0.199l-0.073-0.073c-0.161-0.161-0.237-0.39-0.205-0.616 0.03-0.227 0.167-0.424 0.366-0.535l3.961-1.94 1.954-3.946c0.111-0.2 0.308-0.336 0.535-0.366 0.226-0.033 0.455 0.044 0.616 0.205l0.072 0.072c0.171 0.172 0.246 0.419 0.2 0.658l-0.513 3.15 1.262 1.262" fill="none" stroke="#888" stroke-linecap="round" stroke-linejoin="round" stroke-miterlimit="10" stroke-width="1.25"/>
  </g>
  <g transform="matrix(.35278 0 0 -.35278 -221.7 133.51)">
   <path d="m0 0-3.032 3.032h-3.935c-0.799 0-1.449 0.65-1.449 1.448v6.036c0 0.799 0.65 1.449 1.449 1.449h3.935l5.105 5.105c0.277 0.276 0.639 0.428 1.02 0.428 0.799 0 1.449-0.65 1.449-1.448v-17.103c0-0.799-0.65-1.449-1.449-1.449-0.381 0-0.743 0.152-1.02 0.429" fill="none" stroke="#888" stroke-linecap="round" stroke-linejoin="round" stroke-miterlimit="10" stroke-width="1.25"/>
  </g>
  <g transform="matrix(.35278 0 0 -.35278 -218.26 132.37)">
   <path d="m0 0c-0.048-0.018-0.102-0.031-0.157-0.031-0.211 0-0.385 0.176-0.385 0.386 0 0.175 0.09 0.271 0.235 0.356 0.084 0.048 0.18 0.078 0.271 0.127 0.169 0.09 0.337 0.192 0.494 0.307 0.989 0.729 1.574 1.881 1.574 3.11s-0.585 2.381-1.574 3.11c-0.157 0.115-0.325 0.217-0.494 0.308-0.091 0.048-0.187 0.078-0.271 0.126-0.145 0.085-0.235 0.181-0.235 0.356 0 0.211 0.174 0.386 0.385 0.386 0.055 0 0.109-0.012 0.157-0.031 1.7-0.729 2.803-2.404 2.803-4.255 0-1.85-1.103-3.526-2.803-4.255m-0.608 1.416c-0.049-0.018-0.103-0.03-0.152-0.03-0.216 0-0.391 0.175-0.391 0.386 0 0.169 0.096 0.283 0.235 0.355 0.163 0.085 0.313 0.157 0.458 0.266 0.597 0.434 0.946 1.127 0.946 1.862 0 0.736-0.349 1.429-0.946 1.863-0.145 0.108-0.295 0.181-0.458 0.265-0.139 0.072-0.235 0.187-0.235 0.356 0 0.21 0.175 0.385 0.385 0.385 0.055 0 0.109-0.012 0.158-0.03 1.132-0.476 1.868-1.615 1.868-2.839 0-1.223-0.736-2.362-1.868-2.839m-0.61 1.423c-0.048-0.024-0.102-0.03-0.15-0.03-0.211 0-0.386 0.168-0.386 0.386 0 0.458 0.699 0.331 0.699 1.06s-0.699 0.603-0.699 1.061c0 0.217 0.175 0.386 0.386 0.386 0.048 0 0.102-6e-3 0.15-0.03 0.567-0.223 0.935-0.814 0.935-1.417 0-0.602-0.368-1.187-0.935-1.416" fill="#888"/>
  </g>
  <g transform="matrix(.35278 0 0 -.35278 -205.81 114.68)">
   <path d="m0 0c-0.276 0-0.501 0.225-0.501 0.501 0 0.277 0.225 0.502 0.501 0.502h3.774c0.276 0 0.501-0.225 0.501-0.502 0-0.276-0.225-0.501-0.501-0.501z" fill="#888"/>
  </g>
  <g transform="matrix(.35278 0 0 -.35278 -205.81 115.62)">
   <path d="m0 0c-0.276 0-0.501 0.225-0.501 0.501 0 0.277 0.225 0.502 0.501 0.502h7.896c0.276 0 0.501-0.225 0.501-0.502 0-0.276-0.225-0.501-0.501-0.501z" fill="#888"/>
  </g>
  <g transform="matrix(.35278 0 0 -.35278 -205.81 116.56)">
   <path d="m0 0c-0.276 0-0.501 0.225-0.501 0.501 0 0.277 0.225 0.502 0.501 0.502h7.896c0.276 0 0.501-0.225 0.501-0.502 0-0.276-0.225-0.501-0.501-0.501z" fill="#888"/>
  </g>
  <g transform="matrix(.35278 0 0 -.35278 -205.81 117.51)">
   <path d="m0 0c-0.276 0-0.501 0.225-0.501 0.501 0 0.277 0.225 0.502 0.501 0.502h7.896c0.276 0 0.501-0.225 0.501-0.502 0-0.276-0.225-0.501-0.501-0.501z" fill="#888"/>
  </g>
  <g transform="matrix(.35278 0 0 -.35278 -201.96 115.62)">
   <path d="m0 0v1.753c0 0.974-0.388 1.907-1.077 2.594l-2.239 2.23c-0.437 0.436-1.03 0.681-1.648 0.681h-5.269c-2.022 0-3.661-1.639-3.661-3.661v-12.678c0-2.022 1.639-3.661 3.661-3.661h6.572c2.022 0 3.661 1.639 3.661 3.661v3.732" fill="none" stroke="#888" stroke-linecap="round" stroke-miterlimit="10" stroke-width="1.25"/>
  </g>
  <g transform="matrix(.35278 0 0 -.35278 -201.56 131.26)">
   <path d="m0 0c0-4.465-3.619-8.082-8.083-8.082s-8.083 3.617-8.083 8.082 3.619 8.084 8.083 8.084c1.956 0 4.41-1.426 4.41-1.426 0.405-0.235 0.465-0.698 0.134-1.029l-1.739-1.74c-0.33-0.331-0.218-0.602 0.249-0.602h5.595c0.467 0 0.833 0.382 0.813 0.85l-0.236 5.351c-0.021 0.468-0.305 0.576-0.631 0.241l-1.946-1.997" fill="none" stroke="#888" stroke-linecap="round" stroke-linejoin="round" stroke-miterlimit="10" stroke-width="1.25"/>
  </g>
  <g transform="matrix(.35278 0 0 -.35278 -222.27 101.58)">
   <path d="m0 0c0-0.509-0.413-0.922-0.922-0.922s-0.922 0.413-0.922 0.922 0.413 0.922 0.922 0.922 0.922-0.413 0.922-0.922" fill="#555656"/>
  </g>
  <g transform="matrix(.35278 0 0 -.35278 -221.32 101.58)">
   <path d="m0 0c0-0.509-0.413-0.922-0.922-0.922s-0.922 0.413-0.922 0.922 0.413 0.922 0.922 0.922 0.922-0.413 0.922-0.922" fill="#555656"/>
  </g>
  <g transform="matrix(.35278 0 0 -.35278 -220.32 101.58)">
   <path d="m0 0c0-0.509-0.413-0.922-0.922-0.922s-0.922 0.413-0.922 0.922 0.413 0.922 0.922 0.922 0.922-0.413 0.922-0.922" fill="#555656"/>
  </g>
  <g transform="matrix(.35278 0 0 -.35278 -239.16 113.71)">
   <path d="m0 0c0.28 0 0.507 0.227 0.507 0.507 0 0.281-0.227 0.508-0.507 0.508s-0.507-0.227-0.507-0.508c0-0.28 0.227-0.507 0.507-0.507" fill="#888"/>
  </g>
  <g transform="matrix(.35278 0 0 -.35278 -239.28 118.87)">
   <path d="m0 0c-0.28 0-0.507-0.227-0.507-0.507 0-0.281 0.227-0.508 0.507-0.508s0.507 0.227 0.507 0.508c0 0.28-0.227 0.507-0.507 0.507" fill="#888"/>
  </g>
  <g transform="matrix(.35278 0 0 -.35278 -241.71 116.41)">
   <path d="m0 0c-0.28 0-0.507-0.227-0.507-0.507 0-0.281 0.227-0.508 0.507-0.508s0.507 0.227 0.507 0.508c0 0.28-0.227 0.507-0.507 0.507" fill="#888"/>
  </g>
  <g transform="matrix(.35278 0 0 -.35278 -236.52 116.41)">
   <path d="m0 0c-0.28 0-0.507-0.227-0.507-0.507 0-0.281 0.227-0.508 0.507-0.508s0.507 0.227 0.507 0.508c0 0.28-0.227 0.507-0.507 0.507" fill="#888"/>
  </g>
  <g transform="matrix(.35278 0 0 -.35278 -237.99 115.35)">
   <path d="m0 0-3.007-3.988c-0.22-0.291-0.634-0.348-0.924-0.128l-2.641 2.006c-0.199 0.15-0.482 0.112-0.633-0.087s-0.112-0.482 0.087-0.633l3.528-2.679v-1e-3h1e-3c0.029-0.022 0.062-0.035 0.094-0.049 0.013-6e-3 0.024-0.015 0.036-0.019 0.046-0.015 0.094-0.023 0.141-0.023 0.069 0 0.137 0.016 0.199 0.046 0.027 0.013 0.047 0.04 0.072 0.059 0.031 0.024 0.065 0.042 0.09 0.074v1e-3l3.678 4.877c0.151 0.199 0.111 0.482-0.088 0.633-0.2 0.15-0.483 0.11-0.633-0.089" fill="#888"/>
  </g>
  <g transform="matrix(.35278 0 0 -.35278 -242.32 114.41)">
   <path d="m0 0c1.835 3.08 5.198 5.144 9.044 5.144 5.809 0 10.518-4.709 10.518-10.518 0-5.81-4.709-10.519-10.518-10.519s-10.519 4.709-10.519 10.519" fill="none" stroke="#888" stroke-linecap="round" stroke-linejoin="round" stroke-miterlimit="10" stroke-width="1.25"/>
  </g>
  <g transform="matrix(.35278 0 0 -.35278 -184.57 115.58)">
   <path d="m0 0c0 0.919-0.665 1.774-1.663 1.774" fill="#231f20" stroke="#888" stroke-linecap="round" stroke-miterlimit="10"/>
  </g>
  <g transform="matrix(.35278 0 0 -.35278 -240.26 134.02)">
   <path d="m0 0c-3.472 0.894-6.398 3.542-7.48 7.232-1.633 5.575 1.562 11.419 7.136 13.052 5.575 1.634 11.419-1.561 13.052-7.136 1.634-5.575-1.561-11.418-7.136-13.052" fill="none" stroke="#888" stroke-linecap="round" stroke-linejoin="round" stroke-miterlimit="10" stroke-width="1.25"/>
  </g>
  <g transform="matrix(.35278 0 0 -.35278 -188.38 127.67)">
   <path d="m0 0c1.155 0.603 2.468 0.944 3.859 0.944 4.613 0 8.367-3.753 8.367-8.366 0-0.86-0.133-1.714-0.394-2.537-0.306-0.961-0.784-1.856-1.42-2.658l-5.284-5.873c-0.322-0.359-0.785-0.566-1.269-0.566s-0.947 0.207-1.271 0.567l-5.231 5.813c-0.678 0.849-1.163 1.753-1.471 2.716-0.261 0.824-0.393 1.677-0.393 2.538 0 2.417 1.03 4.597 2.674 6.126" fill="none" stroke="#888" stroke-linecap="round" stroke-miterlimit="10" stroke-width="1.25"/>
  </g>
  <g transform="matrix(.35278 0 0 -.35278 -239.34 127.91)">
   <path d="m0 0v-9.452" fill="none" stroke="#888" stroke-linecap="round" stroke-linejoin="round" stroke-miterlimit="10" stroke-width="1.25"/>
  </g>
  <g transform="matrix(.35278 0 0 -.35278 -239.05 132.42)">
   <path d="m0 0c0-0.46-0.373-0.833-0.833-0.833-0.461 0-0.834 0.373-0.834 0.833s0.373 0.833 0.834 0.833c0.46 0 0.833-0.373 0.833-0.833" fill="#888"/>
  </g>
  <g transform="matrix(.35278 0 0 -.35278 -240.75 148.05)">
   <path d="m0 0 10 10-10 10" fill="none" stroke="#888" stroke-linecap="round" stroke-linejoin="round" stroke-miterlimit="10" stroke-width="1.25"/>
  </g>
  <g transform="translate(-22.676 3.4673)" fill="none" stroke="#ddd" stroke-linecap="round" stroke-miterlimit="10" stroke-width=".441">
   <path d="m-8.3717 283.35 2.8694-3e-3 3e-3 -2.8694"/>
   <path d="m-2.6329 283.34-2.8694 3e-3 -3e-3 2.8694"/>
  </g>
  <g transform="matrix(.35278 0 0 -.35278 -219.49 141.45)">
   <path d="m0 0c3.527-1.636 5.896-4.675 5.896-8.154" fill="none" stroke="#888" stroke-linecap="round" stroke-linejoin="round" stroke-miterlimit="10" stroke-width="1.25"/>
  </g>
  <g transform="matrix(.35278 0 0 -.35278 -220.87 147.6)">
   <path d="m0 0c-0.669-0.093-1.356-0.141-2.058-0.141-1.23 0-3.152 0.242-4.267 0.518-0.728 0.18-1.687-2.008-3.706-1.597 0 0 1.818 2.364 0.498 3.183-2.71 1.684-4.396 4.371-4.396 7.33 0 5.211 5.315 9.435 11.871 9.435 1.089 0 2.144-0.116 3.146-0.335" fill="none" stroke="#888" stroke-linecap="round" stroke-linejoin="round" stroke-miterlimit="10" stroke-width="1.25"/>
  </g>
  <g transform="matrix(.35278 0 0 -.35278 -222.39 146.32)">
   <path d="m0 0c1.1-2.427 4.022-4.163 7.455-4.163 0.821 0 2.104 0.162 2.848 0.346 0.485 0.12 1.125-1.34 2.473-1.066 0 0-1.213 1.578-0.333 2.125 1.809 1.123 2.934 2.916 2.934 4.891 0 3.477-3.547 6.296-7.922 6.296-3.828 0-7.022-2.158-7.76-5.027-0.106-0.41-0.161-0.834-0.161-1.269" fill="none" stroke="#888" stroke-linecap="round" stroke-linejoin="round" stroke-miterlimit="10" stroke-width="1.25"/>
  </g>
  <g transform="matrix(.35278 0 0 -.35278 -201.66 143.99)">
   <path d="m0 0 3.38 7.611c0.138 0.311-0.18 0.629-0.491 0.491l-19.117-8.489v0l9.473-1.33c0.164-0.023 0.293-0.152 0.316-0.316l1.149-8.187c0.052-0.37 0.556-0.44 0.708-0.099l2.769 6.236" fill="none" stroke="#888" stroke-linecap="round" stroke-linejoin="round" stroke-miterlimit="10" stroke-width="1.25"/>
  </g>
  <g transform="matrix(.35278 0 0 -.35278 -188.33 146.14)">
   <path d="m0 0-4.091 4.091c-0.217 0.217-0.339 0.512-0.338 0.819l0.026 7.249c3e-3 0.635 0.518 1.148 1.152 1.148l7.219-1e-3c0.306 0 0.599-0.121 0.815-0.337l10.448-10.449c0.45-0.449 0.45-1.179 0-1.629l-7.247-7.246c-0.449-0.45-1.179-0.45-1.629 0l-3.419 3.419" fill="none" stroke="#888" stroke-linecap="round" stroke-linejoin="round" stroke-miterlimit="10" stroke-width="1.25"/>
  </g>
  <g transform="matrix(.35278 0 0 -.35278 -187.24 143.21)">
   <path d="m0 0c0.696-0.696 0.696-1.824 0-2.52-0.696-0.695-1.824-0.695-2.52 0-0.695 0.696-0.695 1.824 0 2.52 0.696 0.696 1.824 0.696 2.52 0z" fill="none" stroke="#888" stroke-linecap="round" stroke-linejoin="round" stroke-miterlimit="10" stroke-width="1.25"/>
  </g>
  <g transform="matrix(.35278 0 0 -.35278 -165.92 143.21)">
   <path d="m0 0c0-0.041 0-3.422-1e-3 -3.463-0.066-3.951-3.323-7.135-7.332-7.135-4.02 0-7.284 3.2-7.333 7.166 0 0.031-1e-3 3.402-1e-3 3.432" fill="none" stroke="#888" stroke-linecap="round" stroke-linejoin="round" stroke-miterlimit="10" stroke-width="1.25"/>
  </g>
  <g transform="matrix(.35278 0 0 -.35278 -168.5 147.18)">
   <path d="m0 0v-1.935" fill="none" stroke="#888" stroke-linecap="round" stroke-linejoin="round" stroke-miterlimit="10" stroke-width="1.25"/>
  </g>
  <g transform="matrix(.35278 0 0 -.35278 -169.81 148.05)">
   <path d="m0 0h7.394" fill="none" stroke="#888" stroke-linecap="round" stroke-linejoin="round" stroke-miterlimit="10" stroke-width="1.25"/>
  </g>
  <g transform="matrix(.35278 0 0 -.35278 -169.12 141.14)">
   <path d="m0 0c0.528 0.261 1.124 0.408 1.755 0.408 2.172 0 3.933-1.743 3.933-3.892v-5.762c0-2.15-1.761-3.892-3.933-3.892-2.173 0-3.934 1.742-3.934 3.892v5.762c0 0.707 0.191 1.371 0.525 1.943" fill="none" stroke="#888" stroke-linecap="round" stroke-linejoin="round" stroke-miterlimit="10" stroke-width="1.25"/>
  </g>
  <g transform="matrix(.35278 0 0 -.35278 -236.5 160.86)">
   <path d="m0 0c-1.925-3.025-5.348-4.988-9.192-4.874-5.807 0.172-10.375 5.018-10.203 10.825s5.019 10.375 10.825 10.203c5.807-0.172 10.375-5.019 10.203-10.826" fill="none" stroke="#888" stroke-linecap="round" stroke-linejoin="round" stroke-miterlimit="10" stroke-width="1.25"/>
  </g>
  <g transform="translate(200.35 118.84)" stroke="#ddd" stroke-miterlimit="10" stroke-width="1.2501">
   <g transform="matrix(.35278 0 0 -.35278 -220.28 162.34)">
    <path d="m0 2.0682h-8.938c-1.034 0-1.887 0.806-1.946 1.838l-0.776 11.624c-0.064 1.118 0.825 2.059 1.945 2.059h10.48c1.119 0 2.007-0.94 1.945-2.057l-0.765-11.624c-0.058-1.033-0.911-1.84-1.945-1.84z" fill="none" stroke="#ddd" stroke-linecap="round" stroke-linejoin="round" stroke-miterlimit="10" stroke-width="1.2501"/>
   </g>
   <g transform="matrix(.35278 0 0 -.35278 -219.92 156.13)">
    <path d="m0 0h3.807" fill="none" stroke="#ddd" stroke-linecap="round" stroke-linejoin="round" stroke-miterlimit="10" stroke-width="1.2501"/>
   </g>
   <g transform="matrix(.35278 0 0 -.35278 -223.79 156.13)">
    <path d="m0 0h-4.124" fill="none" stroke="#ddd" stroke-linecap="round" stroke-linejoin="round" stroke-miterlimit="10" stroke-width="1.2501"/>
   </g>
   <g transform="matrix(.35278 0 0 -.35278 -222.96 156.07)">
    <path d="m0 0v0.293c0 1.076 0.872 1.948 1.948 1.948h2.377c1.076 0 1.948-0.872 1.948-1.948v-0.293" fill="none" stroke="#ddd" stroke-linecap="round" stroke-linejoin="round" stroke-miterlimit="10" stroke-width="1.2501"/>
   </g>
   <g transform="matrix(.35969 0 0 -.26511 -223.3 157.38)">
    <path d="m0 0 0.701-12.357" fill="none" stroke="#ddd" stroke-linecap="round" stroke-linejoin="round" stroke-miterlimit="10" stroke-width="1.2501"/>
   </g>
   <g transform="matrix(.35969 0 0 -.26511 -220.43 157.38)">
    <path d="m0 0-0.701-12.357" fill="none" stroke="#ddd" stroke-linecap="round" stroke-linejoin="round" stroke-miterlimit="10" stroke-width="1.2501"/>
   </g>
   <g transform="matrix(.35969 0 0 -.26511 -221.86 157.38)">
    <path d="m0 0v-12.357" fill="none" stroke="#ddd" stroke-linecap="round" stroke-linejoin="round" stroke-miterlimit="10" stroke-width="1.2501"/>
   </g>
  </g>
  <g transform="matrix(.35278 0 0 -.35278 -207.35 159.94)">
   <path d="m0 0v-3.311c0-0.452 0.367-0.819 0.819-0.819h18.362c0.452 0 0.819 0.367 0.819 0.819v9.645c0 0.452-0.367 0.819-0.819 0.819h-3.588c-0.4 0-0.741 0.289-0.808 0.683l-0.339 2.018c-0.066 0.394-0.408 0.683-0.808 0.683h-7.279c-0.4 0-0.742-0.289-0.808-0.683l-0.338-2.018c-0.067-0.394-0.408-0.683-0.808-0.683h-3.586c-0.452 0-0.819-0.367-0.819-0.819v-3.296" fill="none" stroke="#888" stroke-linecap="round" stroke-linejoin="round" stroke-miterlimit="10" stroke-width="1.25"/>
  </g>
  <g transform="matrix(.35278 0 0 -.35278 -202.64 159.13)">
   <path d="m0 0c0-1.824-1.492-3.302-3.333-3.302s-3.334 1.478-3.334 3.302 1.493 3.302 3.334 3.302 3.333-1.478 3.333-3.302z" fill="none" stroke="#888" stroke-linecap="round" stroke-linejoin="round" stroke-miterlimit="10" stroke-width="1.25"/>
  </g>
  <g transform="matrix(.35278 0 0 -.35278 -188.4 159.22)">
   <path d="m0 0-2.826-2.826c-1.358-1.388-1.349-3.614 0.027-4.99 1.379-1.379 3.61-1.385 4.997-0.02 7e-3 7e-3 2.813 2.812 2.819 2.819" fill="none" stroke="#888" stroke-linecap="round" stroke-linejoin="round" stroke-miterlimit="10" stroke-width="1.25"/>
  </g>
  <g transform="matrix(.35278 0 0 -.35278 -186.8 158.63)">
   <path d="m0 0c-1.241 0.44-2.678 0.168-3.677-0.815l-1.234-1.234" fill="none" stroke="#888" stroke-linecap="round" stroke-linejoin="round" stroke-miterlimit="10" stroke-width="1.25"/>
  </g>
  <g transform="matrix(.35278 0 0 -.35278 -186.76 161.12)">
   <path d="m0 0 1.241 1.241c0.978 0.999 1.247 2.433 0.807 3.671" fill="none" stroke="#888" stroke-linecap="round" stroke-linejoin="round" stroke-miterlimit="10" stroke-width="1.25"/>
  </g>
  <g transform="matrix(.35278 0 0 -.35278 -184.05 158.41)">
   <path d="m0 0 2.826 2.826c1.358 1.388 1.349 3.614-0.027 4.99-1.379 1.379-3.61 1.385-4.997 0.02-7e-3 -7e-3 -2.813-2.812-2.819-2.819" fill="none" stroke="#888" stroke-linecap="round" stroke-linejoin="round" stroke-miterlimit="10" stroke-width="1.25"/>
  </g>
  <g transform="matrix(.35278 0 0 -.35278 -185.65 159)">
   <path d="m0 0c1.241-0.44 2.678-0.168 3.677 0.815l1.234 1.234" fill="none" stroke="#888" stroke-linecap="round" stroke-linejoin="round" stroke-miterlimit="10" stroke-width="1.25"/>
  </g>
  <g transform="matrix(.35278 0 0 -.35278 -185.69 156.51)">
   <path d="m0 0-1.241-1.241c-0.978-0.999-1.247-2.433-0.807-3.671" fill="none" stroke="#888" stroke-linecap="round" stroke-linejoin="round" stroke-miterlimit="10" stroke-width="1.25"/>
  </g>
  <g transform="matrix(.35278 0 0 -.35278 -187.44 160.03)">
   <path d="m0 0 6.897 6.897" fill="none" stroke="#888" stroke-linecap="round" stroke-linejoin="round" stroke-miterlimit="10" stroke-width="1.25"/>
  </g>
  <path d="m-167.31 161.38h-4.2566v-2.6991h4.2566z" fill="none" stroke="#888" stroke-linecap="round" stroke-linejoin="round" stroke-miterlimit="10" stroke-width=".44097"/>
  <g transform="matrix(.35278 0 0 -.35278 -164.51 160.94)">
   <path d="m0 0-5.372 1.288v2.577l5.372 1.332z" fill="none" stroke="#888" stroke-linecap="round" stroke-linejoin="round" stroke-miterlimit="10" stroke-width="1.25"/>
  </g>
  <g transform="matrix(.35278 0 0 -.35278 -170.12 157.08)">
   <path d="m0 0c0-0.998-0.843-1.807-1.884-1.807-1.04 0-1.884 0.809-1.884 1.807s0.844 1.807 1.884 1.807c1.041 0 1.884-0.809 1.884-1.807z" fill="none" stroke="#888" stroke-linecap="round" stroke-linejoin="round" stroke-miterlimit="10" stroke-width="1.25"/>
  </g>
  <g transform="matrix(.35278 0 0 -.35278 -167.28 156.72)">
   <path d="m0 0c0-1.553-1.312-2.811-2.931-2.811-1.618 0-2.93 1.258-2.93 2.811s1.312 2.811 2.93 2.811c1.619 0 2.931-1.258 2.931-2.811z" fill="none" stroke="#888" stroke-linecap="round" stroke-linejoin="round" stroke-miterlimit="10" stroke-width="1.25"/>
  </g>
  <g transform="matrix(.35278 0 0 -.35278 -219.03 172.82)">
   <path d="m0 0c0.24-0.748 0.37-1.546 0.37-2.374 0-4.286-3.475-7.761-7.761-7.761s-7.761 3.475-7.761 7.761 3.475 7.761 7.761 7.761c2.679 0 5.041-1.358 6.435-3.422" fill="none" stroke="#888" stroke-linecap="round" stroke-linejoin="round" stroke-miterlimit="10" stroke-width="1.25"/>
  </g>
  <g transform="matrix(.35278 0 0 -.35278 -221.87 173.43)">
   <path d="m0 0-2.905 2.905" fill="none" stroke="#888" stroke-linecap="round" stroke-linejoin="round" stroke-miterlimit="10" stroke-width="1.25"/>
  </g>
  <g transform="matrix(.35278 0 0 -.35278 -221.32 173.65)">
   <path d="m0 0c0-0.505-0.409-0.913-0.913-0.913s-0.913 0.408-0.913 0.913 0.409 0.913 0.913 0.913 0.913-0.408 0.913-0.913z" fill="none" stroke="#888" stroke-linecap="round" stroke-linejoin="round" stroke-miterlimit="10" stroke-width="1.25"/>
  </g>
  <g transform="matrix(.35278 0 0 -.35278 -221.64 170.25)">
   <path d="m0 0v-1.901" fill="none" stroke="#888" stroke-linecap="round" stroke-linejoin="round" stroke-miterlimit="10" stroke-width="1.25"/>
  </g>
  <path d="m-220.83 169.95h-1.6104v-0.96626h1.6104z" fill="none" stroke="#888" stroke-linecap="round" stroke-linejoin="round" stroke-miterlimit="10" stroke-width=".44097"/>
  <g transform="matrix(.35278 0 0 -.35278 -206.27 170.88)">
   <path d="m0 0v-12.981c0-1.004 0.822-1.826 1.826-1.826h10.043c1.005 0 1.826 0.822 1.826 1.826v17.348c0 1.005-0.821 1.826-1.826 1.826h-10.043c-1.004 0-1.826-0.821-1.826-1.826v-2.313" fill="none" stroke="#888" stroke-linecap="round" stroke-linejoin="round" stroke-miterlimit="10" stroke-width="1.25"/>
  </g>
  <g transform="matrix(.35278 0 0 -.35278 -201.44 169.66)">
   <path d="m0 0h-13.695" fill="none" stroke="#888" stroke-linecap="round" stroke-linejoin="round" stroke-miterlimit="10" stroke-width="1.25"/>
  </g>
  <g transform="matrix(.35278 0 0 -.35278 -201.44 174.17)">
   <path d="m0 0h-13.695" fill="none" stroke="#888" stroke-linecap="round" stroke-linejoin="round" stroke-miterlimit="10" stroke-width="1.25"/>
  </g>
  <g transform="matrix(.35278 0 0 -.35278 -204.18 175.14)">
   <path d="m0 0c0-0.504 0.408-0.913 0.913-0.913 0.504 0 0.913 0.409 0.913 0.913s-0.409 0.913-0.913 0.913c-0.505 0-0.913-0.409-0.913-0.913z" fill="none" stroke="#888" stroke-linecap="round" stroke-linejoin="round" stroke-miterlimit="10" stroke-width="1.25"/>
  </g>
  <g transform="matrix(.35278 0 0 -.35278 -188.12 170.79)">
   <path d="m0 0c0-3.277 2.655-5.935 5.936-5.935 3.273 0 5.934 2.658 5.934 5.935s-2.661 5.935-5.934 5.935c-3.281 0-5.936-2.658-5.936-5.935z" fill="none" stroke="#888" stroke-linecap="round" stroke-linejoin="round" stroke-miterlimit="10" stroke-width="1.25"/>
  </g>
  <g transform="matrix(.35278 0 0 -.35278 -188.76 174.1)">
   <path d="m0 0v-3.85c0-1.005 0.822-1.826 1.826-1.826h11.87c1.004 0 1.826 0.821 1.826 1.826v6.848c0 1.004-0.822 1.826-1.826 1.826h-2.146" fill="none" stroke="#888" stroke-linecap="round" stroke-linejoin="round" stroke-miterlimit="10" stroke-width="1.25"/>
  </g>
  <g transform="matrix(.35278 0 0 -.35278 -187.48 172.4)">
   <path d="m0 0h-1.821c-1.005 0-1.826-0.822-1.826-1.826v-0.943" fill="none" stroke="#888" stroke-linecap="round" stroke-linejoin="round" stroke-miterlimit="10" stroke-width="1.25"/>
  </g>
  <g transform="matrix(.35278 0 0 -.35278 -184.25 174.17)">
   <path d="m0 0v1.37h-2.739v-1.37c0-0.756 0.613-1.37 1.369-1.37 0.757 0 1.37 0.614 1.37 1.37z" fill="none" stroke="#888" stroke-linecap="round" stroke-linejoin="round" stroke-miterlimit="10" stroke-width="1.25"/>
  </g>
  <g transform="matrix(.35278 0 0 -.35278 -166.03 174.09)">
   <path d="m0 0v4.2c0 1.027-0.84 1.867-1.867 1.867h-10.266c-1.027 0-1.867-0.84-1.867-1.867v-4.2" fill="none" stroke="#888" stroke-linecap="round" stroke-linejoin="round" stroke-miterlimit="10" stroke-width="1.25"/>
  </g>
  <g transform="matrix(.35278 0 0 -.35278 -167.02 170.47)">
   <path d="m0 0c0 2.319-1.88 4.2-4.2 4.2s-4.2-1.881-4.2-4.2v-3.142" fill="none" stroke="#888" stroke-linecap="round" stroke-linejoin="round" stroke-miterlimit="10" stroke-width="1.25"/>
  </g>
  <g transform="matrix(.35278 0 0 -.35278 -169 173.92)">
   <path d="m0 0c0-0.773 0.627-1.4 1.4-1.4s1.4 0.627 1.4 1.4-0.627 1.4-1.4 1.4-1.4-0.627-1.4-1.4z" fill="none" stroke="#888" stroke-linecap="round" stroke-linejoin="round" stroke-miterlimit="10" stroke-width="1.25"/>
  </g>
  <g transform="matrix(.35278 0 0 -.35278 -166.03 173.92)">
   <path d="m0 0c0-3.866-3.134-7-7-7s-7 3.134-7 7" fill="none" stroke="#888" stroke-linecap="round" stroke-linejoin="round" stroke-miterlimit="10" stroke-width="1.25"/>
  </g>
  <g transform="matrix(.35278 0 0 -.35278 -242.32 186.87)">
   <path d="m0 0c-0.557-0.701-0.89-1.589-0.89-2.554 0-2.269 1.839-4.109 4.108-4.109h13.696c1.767 0 3.196 1.433 3.196 3.196 0 1.611-1.196 2.949-2.753 3.159-0.219 3.584-3.196 6.428-6.834 6.428-3.009 0-5.57-1.945-6.483-4.648-0.264 0.055-0.539 0.082-0.822 0.082-0.555 0-1.084-0.11-1.568-0.309" fill="none" stroke="#888" stroke-linecap="round" stroke-linejoin="round" stroke-miterlimit="10" stroke-width="1.25"/>
  </g>
  <g transform="matrix(.35278 0 0 -.35278 -241.99 187.77)">
   <path d="m0 0c0 1.259 1.024 2.283 2.283 2.283 0.157 0 0.309-0.015 0.451-0.045l1.583-0.328 0.517 1.532c0.688 2.037 2.599 3.406 4.753 3.406" fill="none" stroke="#888" stroke-linecap="round" stroke-linejoin="round" stroke-miterlimit="10" stroke-width="1.25"/>
  </g>
  <g transform="matrix(.35278 0 0 -.35278 -221.07 187.05)">
   <path d="m0 0c-0.681-0.927-2.046-0.927-2.727 0-0.424 0.578-0.424 1.397 0 1.975 0.681 0.927 2.046 0.927 2.727 0 0.424-0.578 0.424-1.397 0-1.975z" fill="none" stroke="#888" stroke-linecap="round" stroke-linejoin="round" stroke-miterlimit="10" stroke-width="1.25"/>
  </g>
  <g transform="matrix(.35278 0 0 -.35278 -218.82 186.07)">
   <path d="m0 0-5.949 5.949 0.469 1.877c0.317 1.268 1.897 1.706 2.822 0.781l5.316-5.316c0.925-0.925 0.487-2.505-0.782-2.822z" fill="none" stroke="#888" stroke-linecap="round" stroke-linejoin="round" stroke-miterlimit="10" stroke-width="1.25"/>
  </g>
  <g transform="matrix(.35278 0 0 -.35278 -222.19 189.41)">
   <path d="m0 0 5.665 1.954c0.872 0.3 1.56 0.981 1.869 1.85l2.013 5.642-2.678 2.677-3.272 3.272-6.059-2.16c-0.605-0.216-1.079-0.695-1.289-1.303l-4.551-13.195 0.893-0.892 0.297-0.298 5.449 1.879" fill="none" stroke="#888" stroke-linecap="round" stroke-linejoin="round" stroke-miterlimit="10" stroke-width="1.25"/>
  </g>
  <g transform="matrix(.35278 0 0 -.35278 -224.89 190.08)">
   <path d="m0 0 7.169 7.169" fill="none" stroke="#888" stroke-linecap="round" stroke-linejoin="round" stroke-miterlimit="10" stroke-width="1.25"/>
  </g>
  <g transform="matrix(.35278 0 0 -.35278 -204.5 184.06)">
   <path d="m0 0h-5.935c-0.504 0-0.913-0.409-0.913-0.913v-19.174c0-0.504 0.409-0.913 0.913-0.913h9.131c0.504 0 0.913 0.409 0.913 0.913v12.326" fill="none" stroke="#888" stroke-linecap="round" stroke-linejoin="round" stroke-miterlimit="10" stroke-width="1.25"/>
  </g>
  <g transform="matrix(.35278 0 0 -.35278 -199.51 184.01)">
   <path d="m0 0v3.5c0 1.009-0.818 1.826-1.826 1.826h-9.131c-1.008 0-1.826-0.817-1.826-1.826v-5.478c0-1.009 0.818-1.826 1.826-1.826h0.914v-2.739l2.739 2.739h5.478c0.74 0 1.377 0.44 1.664 1.073" fill="none" stroke="#888" stroke-linecap="round" stroke-linejoin="round" stroke-miterlimit="10" stroke-width="1.25"/>
  </g>
  <g transform="matrix(.35278 0 0 -.35278 -203.05 189.54)">
   <path d="m0 0h-10.957" fill="none" stroke="#888" stroke-linecap="round" stroke-linejoin="round" stroke-miterlimit="10" stroke-width="1.25"/>
  </g>
  <g transform="matrix(.35278 0 0 -.35278 -206.92 185.35)">
   <path d="m0 0h6.848" fill="none" stroke="#888" stroke-linecap="round" stroke-linejoin="round" stroke-miterlimit="10" stroke-width="1.25"/>
  </g>
  <g transform="matrix(.35278 0 0 -.35278 -205.31 184.7)">
   <path d="m0 0h1.826" fill="none" stroke="#888" stroke-linecap="round" stroke-linejoin="round" stroke-miterlimit="10" stroke-width="1.25"/>
  </g>
  <g transform="matrix(.35278 0 0 -.35278 -200.8 183.74)">
   <path d="m0 0v0" fill="none" stroke="#888" stroke-linecap="round" stroke-linejoin="round" stroke-miterlimit="10" stroke-width="1.25"/>
  </g>
  <g transform="matrix(.35278 0 0 -.35278 -201.76 183.74)">
   <path d="m0 0v0" fill="none" stroke="#888" stroke-linecap="round" stroke-linejoin="round" stroke-miterlimit="10" stroke-width="1.25"/>
  </g>
  <g transform="matrix(.35278 0 0 -.35278 -202.73 183.74)">
   <path d="m0 0v0" fill="none" stroke="#888" stroke-linecap="round" stroke-linejoin="round" stroke-miterlimit="10" stroke-width="1.25"/>
  </g>
  <g transform="matrix(.35278 0 0 -.35278 -204.66 190.5)">
   <path d="m0 0c0-0.504-0.409-0.913-0.913-0.913s-0.913 0.409-0.913 0.913 0.409 0.913 0.913 0.913 0.913-0.409 0.913-0.913z" fill="none" stroke="#888" stroke-linecap="round" stroke-linejoin="round" stroke-miterlimit="10" stroke-width="1.25"/>
  </g>
  <g transform="translate(344.55 98.28)" stroke="#ddd" stroke-miterlimit="10" stroke-width=".441">
   <g transform="translate(0 .26458)" stroke="#ddd" stroke-miterlimit="10" stroke-width="1.2501">
    <g transform="matrix(.35278 0 0 -.35278 -342.2 198.23)">
     <path d="m0 1.5h-1.446c-1.004 0-1.826 0.822-1.826 1.826v12.522c0 1.004 0.822 1.826 1.826 1.826" fill="none" stroke="#ddd" stroke-linecap="round" stroke-linejoin="round" stroke-miterlimit="10" stroke-width="1.2501"/>
    </g>
    <g transform="matrix(.35278 0 0 -.35278 -338.52 197.58)">
     <path d="m0 1.5c0-1.004-0.822-1.826-1.826-1.826h-5.158" fill="none" stroke="#ddd" stroke-linecap="round" stroke-linejoin="round" stroke-miterlimit="10" stroke-width="1.2501"/>
    </g>
    <g transform="matrix(.35278 0 0 -.35278 -342.11 192.81)">
     <path d="m0 3.3071e-8v4.026c0 1.004 0.822 1.826 1.826 1.826h6.423l5.447-5.479v-8.869c0-1.005-0.822-1.826-1.826-1.826h-10.044c-1.004 0-1.826 0.821-1.826 1.826v5.132" fill="none" stroke="#ddd" stroke-linecap="round" stroke-linejoin="round" stroke-miterlimit="10" stroke-width="1.2501"/>
    </g>
    <g transform="matrix(.35278 0 0 -.35278 -337.35 192.75)">
     <path d="m0 0h-3.621c-1.004 0-1.826 0.822-1.826 1.826v3.652" fill="none" stroke="#ddd" stroke-linecap="round" stroke-linejoin="round" stroke-miterlimit="10" stroke-width="1.2501"/>
    </g>
   </g>
  </g>
  <g transform="matrix(.35278 0 0 -.35278 -172.02 186.29)">
   <path d="m0 0v6.083c0 0.429 0.348 0.777 0.778 0.777h19.444c0.43 0 0.778-0.348 0.778-0.777v-13.223c0-0.429-0.348-0.777-0.778-0.777h-19.444c-0.43 0-0.778 0.348-0.778 0.777v4.139" fill="none" stroke="#888" stroke-linecap="round" stroke-linejoin="round" stroke-miterlimit="10" stroke-width="1.25"/>
  </g>
  <g transform="matrix(.35278 0 0 -.35278 -170.51 185.52)">
   <path d="m0 0h-1.556c-0.214 0-0.388 0.174-0.388 0.389v1.555c0 0.215 0.174 0.389 0.388 0.389h1.556c0.215 0 0.389-0.174 0.389-0.389v-1.555c0-0.215-0.174-0.389-0.389-0.389z" fill="none" stroke="#888" stroke-linecap="round" stroke-linejoin="round" stroke-miterlimit="10" stroke-width="1.25"/>
  </g>
  <g transform="matrix(.35278 0 0 -.35278 -165.98 187.16)">
   <path d="m0 0c-0.467 0-0.882-0.21-1.167-0.536-0.285 0.326-0.699 0.536-1.166 0.536-0.859 0-1.556-0.696-1.556-1.556 0-0.859 0.697-1.555 1.556-1.555 0.467 0 0.881 0.21 1.166 0.536 0.285-0.326 0.7-0.536 1.167-0.536 0.859 0 1.556 0.696 1.556 1.555 0 0.86-0.697 1.556-1.556 1.556z" fill="none" stroke="#888" stroke-linecap="round" stroke-linejoin="round" stroke-miterlimit="10" stroke-width="1.25"/>
  </g>
  <g transform="matrix(.35278 0 0 -.35278 -171.2 188.26)">
   <path d="m0 0h8.556" fill="none" stroke="#888" stroke-linecap="round" stroke-linejoin="round" stroke-miterlimit="10" stroke-width="1.25"/>
  </g>
  <g transform="matrix(.35278 0 0 -.35278 -171.2 187.71)">
   <path d="m0 0h2.333" fill="none" stroke="#888" stroke-linecap="round" stroke-linejoin="round" stroke-miterlimit="10" stroke-width="1.25"/>
  </g>
  <g transform="matrix(.35278 0 0 -.35278 -171.06 186.34)">
   <path d="m0 0v0.389" fill="none" stroke="#888" stroke-linecap="round" stroke-linejoin="round" stroke-miterlimit="10" stroke-width="1.25"/>
  </g>
  <g transform="matrix(.35278 0 0 -.35278 -170.51 186.34)">
   <path d="m0 0v0.389" fill="none" stroke="#888" stroke-linecap="round" stroke-linejoin="round" stroke-miterlimit="10" stroke-width="1.25"/>
  </g>
  <g transform="matrix(.35278 0 0 -.35278 -169.96 186.34)">
   <path d="m0 0v0.389" fill="none" stroke="#888" stroke-linecap="round" stroke-linejoin="round" stroke-miterlimit="10" stroke-width="1.25"/>
  </g>
  <g transform="matrix(.35278 0 0 -.35278 -168.32 186.34)">
   <path d="m0 0v0.389" fill="none" stroke="#888" stroke-linecap="round" stroke-linejoin="round" stroke-miterlimit="10" stroke-width="1.25"/>
  </g>
  <g transform="matrix(.35278 0 0 -.35278 -166.67 186.34)">
   <path d="m0 0v0.389" fill="none" stroke="#888" stroke-linecap="round" stroke-linejoin="round" stroke-miterlimit="10" stroke-width="1.25"/>
  </g>
  <g transform="matrix(.35278 0 0 -.35278 -169.41 186.34)">
   <path d="m0 0v0.389" fill="none" stroke="#888" stroke-linecap="round" stroke-linejoin="round" stroke-miterlimit="10" stroke-width="1.25"/>
  </g>
  <g transform="matrix(.35278 0 0 -.35278 -165.57 186.34)">
   <path d="m0 0v0.389" fill="none" stroke="#888" stroke-linecap="round" stroke-linejoin="round" stroke-miterlimit="10" stroke-width="1.25"/>
  </g>
  <g transform="matrix(.35278 0 0 -.35278 -168.86 186.34)">
   <path d="m0 0v0.389" fill="none" stroke="#888" stroke-linecap="round" stroke-linejoin="round" stroke-miterlimit="10" stroke-width="1.25"/>
  </g>
  <g transform="matrix(.35278 0 0 -.35278 -167.77 186.34)">
   <path d="m0 0v0.389" fill="none" stroke="#888" stroke-linecap="round" stroke-linejoin="round" stroke-miterlimit="10" stroke-width="1.25"/>
  </g>
  <g transform="matrix(.35278 0 0 -.35278 -167.22 186.34)">
   <path d="m0 0v0.389" fill="none" stroke="#888" stroke-linecap="round" stroke-linejoin="round" stroke-miterlimit="10" stroke-width="1.25"/>
  </g>
  <g transform="matrix(.35278 0 0 -.35278 -166.12 186.34)">
   <path d="m0 0v0.389" fill="none" stroke="#888" stroke-linecap="round" stroke-linejoin="round" stroke-miterlimit="10" stroke-width="1.25"/>
  </g>
  <g transform="matrix(.35278 0 0 -.35278 -169.82 187.71)">
   <path d="m0 0h2.333" fill="none" stroke="#888" stroke-linecap="round" stroke-linejoin="round" stroke-miterlimit="10" stroke-width="1.25"/>
  </g>
  <g transform="matrix(.35278 0 0 -.35278 -239.56 197.21)">
   <path d="m0 0v-1.448" fill="none" stroke="#888" stroke-linecap="round" stroke-linejoin="round" stroke-miterlimit="10" stroke-width="1.25"/>
  </g>
  <g transform="matrix(.35278 0 0 -.35278 -239.56 201.26)">
   <path d="m0 0v-5.159" fill="none" stroke="#888" stroke-linecap="round" stroke-linejoin="round" stroke-miterlimit="10" stroke-width="1.25"/>
  </g>
  <g transform="matrix(.35278 0 0 -.35278 -241.63 198.41)">
   <path d="m0 0c-2.37-1.784-3.903-4.621-3.903-7.816 0 1 1.459 1.811 3.259 1.811s3.258-0.811 3.258-1.811c0 1 1.459 1.811 3.259 1.811s3.259-0.811 3.259-1.811c0 1 1.459 1.811 3.258 1.811 1.8 0 3.259-0.811 3.259-1.811 0 5.399-4.377 9.776-9.776 9.776-1.012 0-1.989-0.154-2.907-0.439" fill="none" stroke="#888" stroke-linecap="round" stroke-linejoin="round" stroke-miterlimit="10" stroke-width="1.25"/>
  </g>
  <g transform="matrix(.35278 0 0 -.35278 -240.71 201.17)">
   <path d="m0 0c0 5.399 1.459 9.776 3.259 9.776 1.799 0 3.258-4.377 3.258-9.776" fill="none" stroke="#888" stroke-linecap="round" stroke-linejoin="round" stroke-miterlimit="10" stroke-width="1.25"/>
  </g>
  <g transform="matrix(.35278 0 0 -.35278 -239.81 203.85)">
   <path d="m0 0c0-1.2 0.973-2.172 2.172-2.172 1.2 0 2.173 0.972 2.173 2.172 0 0.4-0.324 0.724-0.724 0.724s-0.724-0.324-0.724-0.724-0.325-0.724-0.725-0.724-0.724 0.324-0.724 0.724v2.172h-1.448z" fill="none" stroke="#888" stroke-linecap="round" stroke-linejoin="round" stroke-miterlimit="10" stroke-width="1.25"/>
  </g>
  <g transform="matrix(.35278 0 0 -.35278 -221.66 197.14)">
   <path d="m0 0v-2.739" fill="none" stroke="#888" stroke-linecap="round" stroke-linejoin="round" stroke-miterlimit="10" stroke-width="1.25"/>
  </g>
  <g transform="matrix(.35278 0 0 -.35278 -222.47 203.75)">
   <path d="m0 0c0-1.26 1.023-2.283 2.283-2.283 1.261 0 2.282 1.023 2.282 2.283" fill="none" stroke="#888" stroke-linecap="round" stroke-linejoin="round" stroke-miterlimit="10" stroke-width="1.25"/>
  </g>
  <g transform="matrix(.35278 0 0 -.35278 -219.41 201.87)">
   <path d="m0 0v-1.669" fill="none" stroke="#888" stroke-linecap="round" stroke-linejoin="round" stroke-miterlimit="10" stroke-width="1.25"/>
  </g>
  <g transform="matrix(.35278 0 0 -.35278 -223.92 202.46)">
   <path d="m0 0v5.935c0 3.53 2.861 6.391 6.391 6.391s6.392-2.861 6.392-6.391v-1.413" fill="none" stroke="#888" stroke-linecap="round" stroke-linejoin="round" stroke-miterlimit="10" stroke-width="1.25"/>
  </g>
  <g transform="matrix(.35278 0 0 -.35278 -218.93 202.62)">
   <path d="m0 0v-0.913c0-1.004-0.822-1.826-1.826-1.826h-12.326c-1.004 0-1.826 0.822-1.826 1.826v0.913z" fill="none" stroke="#888" stroke-linecap="round" stroke-linejoin="round" stroke-miterlimit="10" stroke-width="1.25"/>
  </g>
  <g transform="matrix(.35278 0 0 -.35278 -205.87 198.82)">
   <path d="m0 0h-3.044c-1.004 0-1.826-0.822-1.826-1.826v-8.217c0-1.005 0.822-1.827 1.826-1.827h14.609c1.005 0 1.826 0.822 1.826 1.827v8.217c0 1.004-0.821 1.826-1.826 1.826h-9.2" fill="none" stroke="#888" stroke-linecap="round" stroke-linejoin="round" stroke-miterlimit="10" stroke-width="1.25"/>
  </g>
  <g transform="matrix(.35278 0 0 -.35278 -201.15 201.88)">
   <path d="m0 0h0.913c1.004 0 1.826 0.822 1.826 1.826v1.826c0 1.005-0.822 1.826-1.826 1.826h-0.913" fill="none" stroke="#888" stroke-linecap="round" stroke-linejoin="round" stroke-miterlimit="10" stroke-width="1.25"/>
  </g>
  <g transform="matrix(.35278 0 0 -.35278 -206.62 202.04)">
   <path d="m0 0 3.652 4.565 5.478-2.739 3.653 4.565" fill="none" stroke="#888" stroke-linecap="round" stroke-linejoin="round" stroke-miterlimit="10" stroke-width="1.25"/>
  </g>
  <g transform="matrix(.35278 0 0 -.35278 -185.76 200.91)">
   <path d="m0 0h-12.193" fill="none" stroke="#888" stroke-linecap="round" stroke-linejoin="round" stroke-miterlimit="10" stroke-width="1.25"/>
  </g>
  <g transform="matrix(.35278 0 0 -.35278 -182.66 200.91)">
   <path d="m0 0h-6.728" fill="none" stroke="#888" stroke-linecap="round" stroke-linejoin="round" stroke-miterlimit="10" stroke-width="1.25"/>
  </g>
  <g transform="matrix(.35278 0 0 -.35278 -185.03 198.54)">
   <path d="m0 0 6.728-6.728-6.728-6.728" fill="none" stroke="#888" stroke-linecap="round" stroke-linejoin="round" stroke-miterlimit="10" stroke-width="1.25"/>
  </g>
  <path d="m-167.24 201.71h-2.8988v-1.2883h2.8988z" fill="none" stroke="#888" stroke-linecap="round" stroke-linejoin="round" stroke-miterlimit="10" stroke-width=".44097"/>
  <g transform="matrix(.35278 0 0 -.35278 -171.75 201.1)">
   <path d="m0 0v4.647" fill="none" stroke="#888" stroke-linecap="round" stroke-linejoin="round" stroke-miterlimit="10" stroke-width="1.25"/>
  </g>
  <g transform="matrix(.35278 0 0 -.35278 -165.63 199.46)">
   <path d="m0 0v-10.957c0-1.004-0.822-1.826-1.826-1.826h-13.696c-1.004 0-1.826 0.822-1.826 1.826v3.144" fill="none" stroke="#888" stroke-linecap="round" stroke-linejoin="round" stroke-miterlimit="10" stroke-width="1.25"/>
  </g>
  <g transform="matrix(.35278 0 0 -.35278 -164.99 199.46)">
   <path d="m0 0v2.739c0 1.005-0.822 1.826-1.826 1.826h-17.348c-1.004 0-1.826-0.821-1.826-1.826v-2.739z" fill="none" stroke="#888" stroke-linecap="round" stroke-linejoin="round" stroke-miterlimit="10" stroke-width="1.25"/>
  </g>
  <g transform="matrix(.35278 0 0 -.35278 -237.99 157.17)">
   <path d="m0 0-6.271-3.065-3.062-6.268 6.268 3.062z" fill="none" stroke="#888" stroke-linecap="round" stroke-linejoin="round" stroke-miterlimit="10" stroke-width="1.25"/>
  </g>
  <g transform="matrix(.35278 0 0 -.35278 -235.56 170.35)">
   <path d="m0 0-13.024-13.024c-0.273-0.274-0.717-0.274-0.99 0l-5.404 5.403" fill="none" stroke="#888" stroke-linecap="round" stroke-linejoin="round" stroke-miterlimit="10" stroke-width="1.25"/>
  </g>
  <g transform="matrix(.35278 0 0 -.35278 -235.43 216.84)">
   <path d="m0 0v-4.109c0-1.004-0.822-1.826-1.826-1.826h-17.348c-1.004 0-1.826 0.822-1.826 1.826v4.109" fill="none" stroke="#888" stroke-linecap="round" stroke-linejoin="round" stroke-miterlimit="10" stroke-width="1.25"/>
  </g>
  <g transform="matrix(.35278 0 0 -.35278 -242.84 216.36)">
   <path d="m0 0v-3.652c0-1.005 0.822-1.826 1.826-1.826h17.348c1.004 0 1.826 0.821 1.826 1.826v13.695c0 1.005-0.822 1.827-1.826 1.827h-17.348c-1.004 0-1.826-0.822-1.826-1.827v-5.478" fill="none" stroke="#888" stroke-linecap="round" stroke-linejoin="round" stroke-miterlimit="10" stroke-width="1.25"/>
  </g>
  <g transform="matrix(.35278 0 0 -.35278 -235.43 213.78)">
   <path d="m0 0h-21" fill="none" stroke="#888" stroke-linecap="round" stroke-linejoin="round" stroke-miterlimit="10" stroke-width="1.25"/>
  </g>
  <g transform="matrix(.35278 0 0 -.35278 -236.07 213.78)">
   <path d="m0 0h-17.348" fill="none" stroke="#888" stroke-linecap="round" stroke-linejoin="round" stroke-miterlimit="10" stroke-width="1.25"/>
  </g>
  <g transform="matrix(.35278 0 0 -.35278 -241.39 212.82)">
   <path d="m0 0v3.652" fill="none" stroke="#888" stroke-linecap="round" stroke-linejoin="round" stroke-miterlimit="10" stroke-width="1.25"/>
  </g>
  <g transform="matrix(.35278 0 0 -.35278 -239.13 212.82)">
   <path d="m0 0v3.652" fill="none" stroke="#888" stroke-linecap="round" stroke-linejoin="round" stroke-miterlimit="10" stroke-width="1.25"/>
  </g>
  <g transform="matrix(.35278 0 0 -.35278 -236.88 212.82)">
   <path d="m0 0v3.652" fill="none" stroke="#888" stroke-linecap="round" stroke-linejoin="round" stroke-miterlimit="10" stroke-width="1.25"/>
  </g>
  <g transform="matrix(.35278 0 0 -.35278 -241.87 215.23)">
   <path d="m0 0c0-0.756 0.613-1.37 1.37-1.37 0.756 0 1.369 0.614 1.369 1.37s-0.613 1.37-1.369 1.37c-0.757 0-1.37-0.614-1.37-1.37z" fill="none" stroke="#888" stroke-linecap="round" stroke-linejoin="round" stroke-miterlimit="10" stroke-width="1.25"/>
  </g>
  <g transform="matrix(.35278 0 0 -.35278 -239.62 215.23)">
   <path d="m0 0c0-0.756 0.613-1.37 1.37-1.37 0.756 0 1.369 0.614 1.369 1.37s-0.613 1.37-1.369 1.37c-0.757 0-1.37-0.614-1.37-1.37z" fill="none" stroke="#888" stroke-linecap="round" stroke-linejoin="round" stroke-miterlimit="10" stroke-width="1.25"/>
  </g>
  <g transform="matrix(.35278 0 0 -.35278 -241.87 216.84)">
   <path d="m0 0c0-0.756 0.613-1.37 1.37-1.37 0.756 0 1.369 0.614 1.369 1.37s-0.613 1.37-1.369 1.37c-0.757 0-1.37-0.614-1.37-1.37z" fill="none" stroke="#888" stroke-linecap="round" stroke-linejoin="round" stroke-miterlimit="10" stroke-width="1.25"/>
  </g>
  <g transform="matrix(.35278 0 0 -.35278 -239.62 216.84)">
   <path d="m0 0c0-0.756 0.613-1.37 1.37-1.37 0.756 0 1.369 0.614 1.369 1.37s-0.613 1.37-1.369 1.37c-0.757 0-1.37-0.614-1.37-1.37z" fill="none" stroke="#888" stroke-linecap="round" stroke-linejoin="round" stroke-miterlimit="10" stroke-width="1.25"/>
  </g>
  <g transform="matrix(.35278 0 0 -.35278 -237.36 216.84)">
   <path d="m0 0c0-0.756 0.613-1.37 1.37-1.37 0.756 0 1.369 0.614 1.369 1.37s-0.613 1.37-1.369 1.37c-0.757 0-1.37-0.614-1.37-1.37z" fill="none" stroke="#888" stroke-linecap="round" stroke-linejoin="round" stroke-miterlimit="10" stroke-width="1.25"/>
  </g>
  <g transform="matrix(.35278 0 0 -.35278 -237.36 215.23)">
   <path d="m0 0c0-0.756 0.613-1.37 1.37-1.37 0.756 0 1.369 0.614 1.369 1.37s-0.613 1.37-1.369 1.37c-0.757 0-1.37-0.614-1.37-1.37z" fill="none" stroke="#888" stroke-linecap="round" stroke-linejoin="round" stroke-miterlimit="10" stroke-width="1.25"/>
  </g>
  <g transform="matrix(.35278 0 0 -.35278 -221.81 215.75)">
   <path d="m0 0c-0.454-0.454-1.189-0.454-1.643 0-0.453 0.454-0.453 1.189 0 1.643 0.454 0.453 1.189 0.453 1.643 0 0.454-0.454 0.454-1.189 0-1.643z" fill="none" stroke="#888" stroke-linecap="round" stroke-linejoin="round" stroke-miterlimit="10" stroke-width="1.25"/>
  </g>
  <g transform="matrix(.35278 0 0 -.35278 -218.46 211.24)">
   <path d="m0 0-0.274 0.274" fill="none" stroke="#888" stroke-linecap="round" stroke-linejoin="round" stroke-miterlimit="10" stroke-width="1.25"/>
  </g>
  <g transform="matrix(.35278 0 0 -.35278 -218.85 211.63)">
   <path d="m0 0-0.274 0.274" fill="none" stroke="#888" stroke-linecap="round" stroke-linejoin="round" stroke-miterlimit="10" stroke-width="1.25"/>
  </g>
  <g transform="matrix(.35278 0 0 -.35278 -217.77 211.9)">
   <path d="m0 0-0.275 0.275" fill="none" stroke="#888" stroke-linecap="round" stroke-linejoin="round" stroke-miterlimit="10" stroke-width="1.25"/>
  </g>
  <g transform="matrix(.35278 0 0 -.35278 -218.17 212.3)">
   <path d="m0 0-0.274 0.274" fill="none" stroke="#888" stroke-linecap="round" stroke-linejoin="round" stroke-miterlimit="10" stroke-width="1.25"/>
  </g>
  <g transform="matrix(.35278 0 0 -.35278 -222.77 216.52)">
   <path d="m0 0-1.095 1.095" fill="none" stroke="#888" stroke-linecap="round" stroke-linejoin="round" stroke-miterlimit="10" stroke-width="1.25"/>
  </g>
  <g transform="matrix(.35278 0 0 -.35278 -221.24 217.52)">
   <path d="m0 0c0.204 0.528 0.306 1.102 0.31 1.696 6e-3 1.017 0.565 1.97 1.512 2.342 0.396 0.155 0.758 0.386 1.068 0.696 1.293 1.293 1.229 3.504-0.046 5.23l-0.039 0.039-4.096-4.097c-0.015 0.277-0.123 0.55-0.335 0.761-0.211 0.211-0.484 0.32-0.76 0.334l4.096 4.097-0.038 0.039c-1.726 1.274-3.938 1.338-5.231 0.045-0.309-0.309-0.54-0.672-0.696-1.068-0.371-0.946-1.325-1.505-2.341-1.511-1.189-8e-3 -2.296-0.41-3.118-1.231-1.942-1.943-1.548-5.486 0.88-7.914 1.747-1.747 4.071-2.441 5.961-1.969" fill="none" stroke="#888" stroke-linecap="round" stroke-linejoin="round" stroke-miterlimit="10" stroke-width="1.25"/>
  </g>
  <g transform="matrix(.35278 0 0 -.35278 -218.27 211.05)">
   <path d="m0 0-2.19-2.19 0.274-0.274-8.88-8.88c0.277-0.014 0.549-0.123 0.761-0.334 0.211-0.211 0.32-0.484 0.334-0.761l8.88 8.88 0.273-0.274 2.191 2.19z" fill="none" stroke="#888" stroke-linecap="round" stroke-linejoin="round" stroke-miterlimit="10" stroke-width="1.25"/>
  </g>
  <g transform="matrix(.35278 0 0 -.35278 -201.44 213.47)">
   <path d="m0 0c2.4 0 4.345-1.945 4.345-4.345" fill="none" stroke="#888" stroke-linecap="round" stroke-linejoin="round" stroke-miterlimit="10" stroke-width="1.25"/>
  </g>
  <g transform="matrix(.35278 0 0 -.35278 -207.31 215.01)">
   <path d="m0 0c0 2.4 1.945 4.345 4.345 4.345" fill="none" stroke="#888" stroke-linecap="round" stroke-linejoin="round" stroke-miterlimit="10" stroke-width="1.25"/>
  </g>
  <g transform="matrix(.35278 0 0 -.35278 -205.27 212.45)">
   <path d="m0 0c1.115 0 2.084-0.631 2.568-1.555" fill="none" stroke="#888" stroke-linecap="round" stroke-linejoin="round" stroke-miterlimit="10" stroke-width="1.25"/>
  </g>
  <g transform="matrix(.35278 0 0 -.35278 -199.9 215.01)">
   <path d="m0 0c0 1.904-1.227 3.518-2.932 4.105 0.022 0.198 0.035 0.398 0.035 0.602 0 2.999-2.431 5.431-5.431 5.431-2.327 0-4.307-1.467-5.08-3.525-0.494 0.392-1.119 0.628-1.799 0.628-1.6 0-2.896-1.296-2.896-2.896 0-0.084 5e-3 -0.166 0.012-0.248-1.693-0.594-2.909-2.201-2.909-4.097 0-2.4 1.945-4.345 4.345-4.345h0.724v2.173h10.862v-2.173h0.724c1.017 0 1.952 0.349 2.692 0.935" fill="none" stroke="#888" stroke-linecap="round" stroke-linejoin="round" stroke-miterlimit="10" stroke-width="1.25"/>
  </g>
  <path d="m-201.69 218.07h-3.8319v-2.299h3.8319z" fill="none" stroke="#888" stroke-linecap="round" stroke-linejoin="round" stroke-miterlimit="10" stroke-width=".44097"/>
  <g transform="matrix(.35278 0 0 -.35278 -206.04 215.77)">
   <path d="m0 0h13.759" fill="none" stroke="#888" stroke-linecap="round" stroke-linejoin="round" stroke-miterlimit="10" stroke-width="1.25"/>
  </g>
  <g transform="matrix(.35278 0 0 -.35278 -204.76 217.3)">
   <path d="m0 0h6.517" fill="none" stroke="#888" stroke-linecap="round" stroke-linejoin="round" stroke-miterlimit="10" stroke-width="1.25"/>
  </g>
  <g transform="matrix(.35278 0 0 -.35278 -204.76 216.54)">
   <path d="m0 0h6.517" fill="none" stroke="#888" stroke-linecap="round" stroke-linejoin="round" stroke-miterlimit="10" stroke-width="1.25"/>
  </g>
  <g transform="matrix(.35278 0 0 -.35278 -185.57 213.93)">
   <path d="m0 0 5.25 5.25c0.322 0.322 0.322 0.844 0 1.166v1e-3c-0.322 0.322-0.844 0.322-1.166 0l-6.417-6.417z" fill="none" stroke="#888" stroke-linecap="round" stroke-linejoin="round" stroke-miterlimit="10" stroke-width="1.25"/>
  </g>
  <g transform="matrix(.35278 0 0 -.35278 -189.82 213.39)">
   <path d="m0 0v-1.556h9.722l1.556 1.556z" fill="none" stroke="#888" stroke-linecap="round" stroke-linejoin="round" stroke-miterlimit="10" stroke-width="1.25"/>
  </g>
  <g transform="matrix(.35278 0 0 -.35278 -185.02 213.39)">
   <path d="m0 0-1.556-1.556h8.945v1.556z" fill="none" stroke="#888" stroke-linecap="round" stroke-linejoin="round" stroke-miterlimit="10" stroke-width="1.25"/>
  </g>
  <g transform="matrix(.35278 0 0 -.35278 -189.38 215.1)">
   <path d="m0 0-0.473 3.312h19.444l-1.364-9.554c-0.11-0.766-0.766-1.335-1.54-1.335h-13.635c-0.775 0-1.431 0.569-1.54 1.335l-0.464 3.249" fill="none" stroke="#888" stroke-linecap="round" stroke-linejoin="round" stroke-miterlimit="10" stroke-width="1.25"/>
  </g>
  <g transform="matrix(.35278 0 0 -.35278 -188.04 215.03)">
   <path d="m0 0h-1.556" fill="none" stroke="#888" stroke-linecap="round" stroke-linejoin="round" stroke-miterlimit="10" stroke-width="1.25"/>
  </g>
  <g transform="matrix(.35278 0 0 -.35278 -186.94 215.03)">
   <path d="m0 0h-1.556" fill="none" stroke="#888" stroke-linecap="round" stroke-linejoin="round" stroke-miterlimit="10" stroke-width="1.25"/>
  </g>
  <g transform="matrix(.35278 0 0 -.35278 -185.84 215.03)">
   <path d="m0 0h-1.556" fill="none" stroke="#888" stroke-linecap="round" stroke-linejoin="round" stroke-miterlimit="10" stroke-width="1.25"/>
  </g>
  <g transform="matrix(.35278 0 0 -.35278 -184.74 215.03)">
   <path d="m0 0h-1.556" fill="none" stroke="#888" stroke-linecap="round" stroke-linejoin="round" stroke-miterlimit="10" stroke-width="1.25"/>
  </g>
  <g transform="matrix(.35278 0 0 -.35278 -183.65 215.03)">
   <path d="m0 0h-1.556" fill="none" stroke="#888" stroke-linecap="round" stroke-linejoin="round" stroke-miterlimit="10" stroke-width="1.25"/>
  </g>
  <g transform="matrix(.35278 0 0 -.35278 -188.04 215.86)">
   <path d="m0 0h-1.556" fill="none" stroke="#888" stroke-linecap="round" stroke-linejoin="round" stroke-miterlimit="10" stroke-width="1.25"/>
  </g>
  <g transform="matrix(.35278 0 0 -.35278 -186.94 215.86)">
   <path d="m0 0h-1.556" fill="none" stroke="#888" stroke-linecap="round" stroke-linejoin="round" stroke-miterlimit="10" stroke-width="1.25"/>
  </g>
  <g transform="matrix(.35278 0 0 -.35278 -185.84 215.86)">
   <path d="m0 0h-1.556" fill="none" stroke="#888" stroke-linecap="round" stroke-linejoin="round" stroke-miterlimit="10" stroke-width="1.25"/>
  </g>
  <g transform="matrix(.35278 0 0 -.35278 -184.74 215.86)">
   <path d="m0 0h-1.556" fill="none" stroke="#888" stroke-linecap="round" stroke-linejoin="round" stroke-miterlimit="10" stroke-width="1.25"/>
  </g>
  <g transform="matrix(.35278 0 0 -.35278 -183.65 215.86)">
   <path d="m0 0h-1.556" fill="none" stroke="#888" stroke-linecap="round" stroke-linejoin="round" stroke-miterlimit="10" stroke-width="1.25"/>
  </g>
  <g transform="matrix(.35278 0 0 -.35278 -188.04 216.68)">
   <path d="m0 0h-1.556" fill="none" stroke="#888" stroke-linecap="round" stroke-linejoin="round" stroke-miterlimit="10" stroke-width="1.25"/>
  </g>
  <g transform="matrix(.35278 0 0 -.35278 -186.94 216.68)">
   <path d="m0 0h-1.556" fill="none" stroke="#888" stroke-linecap="round" stroke-linejoin="round" stroke-miterlimit="10" stroke-width="1.25"/>
  </g>
  <g transform="matrix(.35278 0 0 -.35278 -185.84 216.68)">
   <path d="m0 0h-1.556" fill="none" stroke="#888" stroke-linecap="round" stroke-linejoin="round" stroke-miterlimit="10" stroke-width="1.25"/>
  </g>
  <g transform="matrix(.35278 0 0 -.35278 -184.74 216.68)">
   <path d="m0 0h-1.556" fill="none" stroke="#888" stroke-linecap="round" stroke-linejoin="round" stroke-miterlimit="10" stroke-width="1.25"/>
  </g>
  <g transform="matrix(.35278 0 0 -.35278 -183.65 216.68)">
   <path d="m0 0h-1.556" fill="none" stroke="#888" stroke-linecap="round" stroke-linejoin="round" stroke-miterlimit="10" stroke-width="1.25"/>
  </g>
  <g transform="matrix(.35278 0 0 -.35278 -166.12 215.22)">
   <path d="m0 0c0 1.004-0.189 2.597-0.789 3.717-0.379 0.709-0.852 1.25-1.71 1.221-0.143-5e-3 -0.43-0.057-0.566-0.107-1.052-0.39-1.66-2.102-2.236-3.772-0.19-0.555-0.381-1.11-0.593-1.628-0.612-1.506-1.512-2.649-2.828-2.706-0.192-8e-3 -0.335-4e-3 -0.565 0.073-1.159 0.383-2.101 1.9-2.546 3.587-0.612 2.317-0.611 4.88-0.611 4.893" fill="none" stroke="#888" stroke-linecap="round" stroke-linejoin="round" stroke-miterlimit="10" stroke-width="1.25"/>
  </g>
  <g transform="matrix(.35278 0 0 -.35278 -165.57 215.69)">
   <path d="m0 0-3.111-3.111" fill="none" stroke="#888" stroke-linecap="round" stroke-linejoin="round" stroke-miterlimit="10" stroke-width="1.25"/>
  </g>
  <g transform="matrix(.35278 0 0 -.35278 -166.67 215.69)">
   <path d="m0 0 3.111-3.111" fill="none" stroke="#888" stroke-linecap="round" stroke-linejoin="round" stroke-miterlimit="10" stroke-width="1.25"/>
  </g>
  <g transform="matrix(.35278 0 0 -.35278 -171.88 217.03)">
   <path d="m0 0v-3.48c0-0.626 0.613-1.068 1.207-0.87l5.503 1.834c0.188 0.063 0.392 0.063 0.58 0l6.42-2.14c0.188-0.062 0.392-0.062 0.58 0l6.083 2.028c0.374 0.125 0.627 0.475 0.627 0.87v16.733c0 0.626-0.613 1.068-1.207 0.87l-5.503-1.834c-0.188-0.063-0.392-0.063-0.58 0l-6.42 2.14c-0.188 0.063-0.392 0.063-0.58 0l-6.083-2.028c-0.374-0.125-0.627-0.475-0.627-0.87v-10.087" fill="none" stroke="#888" stroke-linecap="round" stroke-linejoin="round" stroke-miterlimit="10" stroke-width="1.25"/>
  </g>
  <g transform="matrix(.35278 0 0 -.35278 -168.53 227.39)">
   <path d="m0 0c1.596 0.564 2.739 2.086 2.739 3.875 0 2.268-1.839 4.108-4.109 4.108-2.268 0-4.109-1.84-4.109-4.108 0-1.788 1.143-3.31 2.738-3.875" fill="none" stroke="#888" stroke-linecap="round" stroke-linejoin="round" stroke-miterlimit="10" stroke-width="1.25"/>
  </g>
  <g transform="matrix(.35278 0 0 -.35278 -168.53 229.08)">
   <path d="m0 0v8.674c0 0.756-0.613 1.369-1.37 1.369-0.756 0-1.369-0.613-1.369-1.369v-10.846l-2.227 1.771c-0.535 0.535-1.403 0.535-1.938 0-0.534-0.534-0.534-1.402 0-1.937" fill="none" stroke="#888" stroke-linecap="round" stroke-linejoin="round" stroke-miterlimit="10" stroke-width="1.25"/>
  </g>
  <g transform="matrix(.35278 0 0 -.35278 -167.76 228.45)">
   <path d="m0 0-2.196 0.471" fill="none" stroke="#888" stroke-linecap="round" stroke-linejoin="round" stroke-miterlimit="10" stroke-width="1.25"/>
  </g>
  <g transform="matrix(.35278 0 0 -.35278 -170.97 229.91)">
   <path d="m0 0s0.739-1.323 1.642-2.94 3.442-2.94 5.642-2.94h0.641c2.2 0 4.227 1.511 4.504 3.357s0.585 3.9 0.685 4.565c0.099 0.665 0.181 1.209 0.181 1.209" fill="none" stroke="#888" stroke-linecap="round" stroke-linejoin="round" stroke-miterlimit="10" stroke-width="1.25"/>
  </g>
  <path d="m-14.312 299.46 2.4053 2.401 2.4052-2.401" fill="none" stroke="#ddd" stroke-linecap="round" stroke-miterlimit="10" stroke-width=".441"/>
  <path d="m5.448 278.53-2.4053-2.401-2.4052 2.401" fill="none" stroke="#ddd" stroke-linecap="round" stroke-miterlimit="10" stroke-width=".441"/>
  <g transform="translate(-55.11 8.0746)" stroke="#ddd" stroke-miterlimit="10">
   <path d="m23.527 267.1v-1.9494c0-0.35419-0.28998-0.64417-0.64417-0.64417h-3.3242l-1.9216 1.9329v3.658c0 0.35454 0.28998 0.64417 0.64417 0.64417h4.6016c0.35419 0 0.64417-0.28963 0.64417-0.64417v-1.8104" fill="none" stroke-linecap="round" stroke-linejoin="round" stroke-width=".441"/>
   <g transform="matrix(.35278 0 0 -.35278 49.019 244.71)" stroke-width="1.2501">
    <path d="m-81.691-61.238c-1.4359-0.36973-2.646-1.4649-3.0935-2.9909-0.67536-2.3057 0.646-4.7226 2.9512-5.3979 2.3057-0.67578 4.7226 0.64558 5.3979 2.9512 0.67578 2.3057-0.64558 4.7222-2.9512 5.3979" fill="none" stroke="#ddd" stroke-linecap="round" stroke-linejoin="round" stroke-miterlimit="10" stroke-width="1.2501"/>
   </g>
  </g>
  <g transform="translate(13.361 -11.112)">
   <g transform="translate(2.967 17.61)" fill="none" stroke="#ddd" stroke-linecap="round" stroke-miterlimit="10">
    <path transform="matrix(-.35278 0 0 -.35278 -29.988 175.5)" d="m-80.248-282.91v-5.1266c0-1.005-0.822-1.826-1.826-1.826h-13.044c-1.004 0-1.826 0.821-1.826 1.826v5.132" stroke-linejoin="round" stroke-width="1.2501"/>
    <path d="m-0.60972 274.4 1.8761 1.8718 1.8761-1.8718" stroke-width=".441"/>
    <path d="m1.2679 272.56-3e-3 2.3402" stroke-width=".441"/>
   </g>
  </g>
  <g transform="translate(-44.582 22.187)" stroke="#ddd" stroke-miterlimit="10">
   <g transform="matrix(-.35278 0 0 -.35278 -37.208 175.42)" stroke-width="1.2501">
    <path d="m-80.248-282.91v-5.1266c0-1.005-0.822-1.826-1.826-1.826h-13.044c-1.004 0-1.826 0.821-1.826 1.826v5.132" fill="none" stroke="#ddd" stroke-linecap="round" stroke-linejoin="round" stroke-miterlimit="10" stroke-width="1.2501"/>
   </g>
   <path d="m-7.8292 274.44 1.8761-1.8718 1.8761 1.8718" fill="none" stroke-linecap="round" stroke-width=".441"/>
   <path d="m-5.9516 276.28-3e-3 -2.3402" fill="none" stroke-linecap="round" stroke-width=".441"/>
  </g>
 </g>
</svg>
